<svg xmlns="http://www.w3.org/2000/svg" width="48" height="48" viewBox="0 0 48 48" fill="">
	<path d="M24 29L19.03 33.7099C17.7233 34.9718 17 36.6169 17 38.3746C17 42.0254 20.15 45 24 45C27.85 45 31 42.0254 31 38.3746C31 36.6169 30.2767 34.9493 28.97 33.7099L24 29Z" fill="#fff"/>
	<path d="M33.4993 12.1825L32.4543 13.4451C29.6519 16.8197 23.9995 14.9143 23.9995 10.5756V3C23.9995 3 5 12.1825 5 28.252C5 34.9552 8.7049 40.8091 14.2385 44C12.9085 42.1865 12.1248 39.9597 12.1248 37.5722C12.1248 34.542 13.3598 31.6954 15.616 29.5375L23.9995 21.5946L32.383 29.5605C34.6392 31.6954 35.8742 34.542 35.8742 37.5952C35.8742 39.9367 35.138 42.0946 33.8555 43.9082C38.3441 41.2682 41.669 36.8835 42.6665 31.7413C44.234 23.5918 40.1253 15.9015 33.4993 12.1825Z" fill="#fff"/>
</svg>